<svg xmlns="http://www.w3.org/2000/svg" width="192" height="32" fill="none"><path fill="#fff" fill-rule="evenodd" d="M2.69445 26.3237c1.48904 0 2.69446-1.2062 2.69446-2.6962V2.69623C5.38891 1.20621 4.18349 0 2.69445 0S0 1.20621 0 2.69623V23.6275c0 1.49 1.20541 2.6962 2.69445 2.6962Zm15.50575.2129c5.9207 0 10.3169-4.4346 10.3169-9.898v-.071c0-5.4634-4.3607-9.82702-10.246-9.82702-5.9207 0-10.31689 4.43462-10.31689 9.89802v.0709c0 5.4634 4.36079 9.8271 10.24599 9.8271Zm-4.928-9.898c0 2.8026 2.0208 5.2505 4.9989 5.2505 3.0845 0 4.928-2.3769 4.928-5.1796v-.0709c0-2.8027-2.0208-5.2506-4.9989-5.2506-3.0844 0-4.928 2.377-4.928 5.1796v.071Zm26.8863 9.898c5.9207 0 10.3169-4.4346 10.3169-9.898v-.071c0-5.4634-4.3608-9.82702-10.246-9.82702-5.9207 0-10.3169 4.43462-10.3169 9.89802v.0709c0 5.4634 4.3607 9.8271 10.246 9.8271Zm-4.928-9.898c0 2.8026 2.0208 5.2505 4.9989 5.2505 3.0844 0 4.928-2.3769 4.928-5.1796v-.0709c0-2.8027-2.0208-5.2506-4.9989-5.2506-3.0845 0-4.928 2.377-4.928 5.1796v.071ZM55.487 32c1.489 0 2.6944-1.2062 2.6944-2.6962v-5.6763c1.2764 1.5255 3.049 2.8381 5.9207 2.8381 4.5026 0 8.6506-3.4767 8.6506-9.827v-.071c0-6.3503-4.2189-9.82702-8.6506-9.82702-2.8008 0-4.6089 1.31264-5.9207 3.08647v-.24834c0-1.49002-1.2054-2.69623-2.6944-2.69623-1.4891 0-2.6945 1.20621-2.6945 2.69623V29.3038c0 1.49 1.2054 2.6962 2.6945 2.6962Zm2.6235-15.3614c0 3.1574 2.0918 5.2505 4.609 5.2505 2.5171 0 4.6443-2.0576 4.6443-5.2505v-.071c0-3.1574-2.1272-5.2505-4.6443-5.2505-2.5172 0-4.609 2.0931-4.609 5.2505v.071Zm23.6955 9.827c4.1126 0 7.2679-1.9157 7.2679-6.1374v-.071c0-3.4767-3.0844-4.7539-5.7434-5.6408-.2022-.0698-.4021-.1375-.598-.2039-1.7965-.6088-3.2664-1.107-3.2664-2.0666v-.071c0-.745.6736-1.3126 1.9854-1.3126 1.1345 0 2.5881.4612 4.1126 1.2062.3545.1774.6027.2484.9927.2484 1.2054 0 2.1626-.9224 2.1626-2.1287 0-.92235-.4963-1.63188-1.2763-2.02212-1.8436-.9224-3.8999-1.45455-5.8853-1.45455-3.8289 0-6.9488 2.16408-6.9488 6.03107v.0709c0 3.6896 3.0135 4.9313 5.6725 5.7118.244.0745.4846.1456.7193.2149 1.7774.5253 3.216.9505 3.216 1.9846v.071c0 .8514-.709 1.4191-2.269 1.4191-1.5245 0-3.3326-.5677-5.1407-1.7029-.2836-.1774-.6736-.2838-1.0636-.2838-1.2054 0-2.1272.9224-2.1272 2.1286 0 .8514.4609 1.49 1.0281 1.8448 2.3045 1.49 4.8217 2.164 7.1616 2.164Zm18.697-.5676c-.9931.3902-1.9149.5322-3.0849.5322-3.2971 0-5.5307-1.3127-5.5307-5.7118v-9.0111h-.1772c-1.2764 0-2.3045-1.0288-2.3045-2.30597 0-1.27716 1.0281-2.30599 2.3045-2.30599h.1772V4.7184c0-1.49002 1.2054-2.69623 2.6945-2.69623 1.489 0 2.6944 1.20621 2.6944 2.69623v2.37694h2.3754c1.2763 0 2.3043 1.02883 2.3043 2.30599 0 1.27717-1.028 2.30597-2.3043 2.30597h-2.3754v8.1242c0 1.2417.5318 1.8448 1.7372 1.8448.0999 0 .2561-.0113.3925-.0211.1056-.0076.1993-.0144.2457-.0144 1.2053 0 2.2333.9933 2.2333 2.235 0 .9579-.638 1.7384-1.382 2.0222Zm9.939.5676c2.73 0 4.325-1.4545 5.566-3.051v.2129c0 1.49 1.206 2.6962 2.695 2.6962 1.489 0 2.694-1.2062 2.694-2.6962V9.57871c0-1.49002-1.205-2.69623-2.694-2.69623-1.489 0-2.695 1.20621-2.695 2.69623v8.12419c0 2.5543-1.311 3.8669-3.368 3.8669-2.056 0-3.261-1.3126-3.261-3.8669V9.57871c0-1.49002-1.206-2.69623-2.695-2.69623-1.489 0-2.694 1.20621-2.694 2.69623v9.82709c0 4.3636 2.375 7.0598 6.452 7.0598Zm27.915-3.0864c-1.312 1.7738-3.12 3.0864-5.921 3.0864-4.432 0-8.651-3.4767-8.651-9.827v-.071c0-6.3503 4.148-9.82702 8.651-9.82702 2.872 0 4.644 1.31264 5.921 2.83813V2.69623C138.357 1.20621 139.562 0 141.051 0c1.489 0 2.694 1.20621 2.694 2.69623V23.6275c0 1.49-1.205 2.6962-2.694 2.6962-1.489 0-2.694-1.2062-2.694-2.6962v-.2483Zm-4.538-1.4901c-2.518 0-4.645-2.0931-4.645-5.2505v-.071c0-3.1929 2.127-5.2505 4.645-5.2505 2.517 0 4.608 2.0931 4.608 5.2505v.071c0 3.1574-2.091 5.2505-4.608 5.2505Zm19.122-19.26382c0 1.56097-1.312 2.55432-3.014 2.55432-1.702 0-3.014-.99335-3.014-2.55432v-.07096c0-1.560972 1.312-2.5188433 3.014-2.5188433 1.702 0 3.014.9578713 3.014 2.5188433v.07096Zm-3.014 23.69842c1.489 0 2.694-1.2062 2.694-2.6962V9.57871c0-1.49002-1.205-2.69623-2.694-2.69623-1.489 0-2.694 1.20621-2.694 2.69623V23.6275c0 1.49 1.205 2.6962 2.694 2.6962Zm25.823-9.6851c0 5.4634-4.396 9.898-10.317 9.898-5.885 0-10.246-4.3637-10.246-9.8271v-.0709c0-5.4634 4.396-9.89802 10.317-9.89802 5.885 0 10.246 4.36362 10.246 9.82702v.071Zm-10.246 5.2505c-2.978 0-4.999-2.4479-4.999-5.2505v-.071c0-2.8026 1.843-5.1796 4.928-5.1796 2.978 0 4.999 2.4479 4.999 5.2506v.0709c0 2.8027-1.844 5.1796-4.928 5.1796ZM192 20.3282c0 4.2217-3.155 6.1374-7.268 6.1374-2.34 0-4.857-.674-7.161-2.164-.568-.3548-1.029-.9934-1.029-1.8448 0-1.2062.922-2.1286 2.128-2.1286.39 0 .78.1064 1.063.2838 1.808 1.1352 3.616 1.7029 5.141 1.7029 1.56 0 2.269-.5677 2.269-1.4191v-.071c0-1.0341-1.439-1.4593-3.216-1.9846-.235-.0693-.475-.1404-.719-.2149-2.659-.7805-5.673-2.0222-5.673-5.7118v-.0709c0-3.86699 3.12-6.03107 6.949-6.03107 1.985 0 4.042.53215 5.885 1.45455.78.39024 1.276 1.09977 1.276 2.02212 0 1.2063-.957 2.1287-2.162 2.1287-.39 0-.638-.071-.993-.2484-1.524-.745-2.978-1.2062-4.112-1.2062-1.312 0-1.986.5676-1.986 1.3126v.071c0 .9596 1.47 1.4578 3.267 2.0666.195.0664.395.1341.598.2039 2.659.8869 5.743 2.1641 5.743 5.6408v.071Z" clip-rule="evenodd"/></svg>